<?xml version="1.0" encoding="UTF-8" standalone="no"?>
<!DOCTYPE svg PUBLIC "-//W3C//DTD SVG 1.1//EN"
 "http://www.w3.org/Graphics/SVG/1.1/DTD/svg11.dtd">
<!-- Generated by graphviz version 2.38.0 (20140413.2041)
 -->
<!-- Title: Perl Pages: 1 -->
<svg width="441pt" height="391pt"
 viewBox="0.00 0.00 440.50 391.00" xmlns="http://www.w3.org/2000/svg" xmlns:xlink="http://www.w3.org/1999/xlink">
<g id="graph0" class="graph" transform="scale(1 1) rotate(0) translate(4 387)">
<title>Perl</title>
<polygon fill="white" stroke="none" points="-4,4 -4,-387 436.5,-387 436.5,4 -4,4"/>
<!-- countries -->
<g id="node1" class="node"><title>countries</title>
<path fill="none" stroke="blue" d="M251.5,-0.5C251.5,-0.5 420.5,-0.5 420.5,-0.5 426.5,-0.5 432.5,-6.5 432.5,-12.5 432.5,-12.5 432.5,-172.5 432.5,-172.5 432.5,-178.5 426.5,-184.5 420.5,-184.5 420.5,-184.5 251.5,-184.5 251.5,-184.5 245.5,-184.5 239.5,-178.5 239.5,-172.5 239.5,-172.5 239.5,-12.5 239.5,-12.5 239.5,-6.5 245.5,-0.5 251.5,-0.5"/>
<text text-anchor="middle" x="273.5" y="-88.8" font-family="Times,serif" font-size="14.00">countries</text>
<polyline fill="none" stroke="blue" points="307.5,-0.5 307.5,-184.5 "/>
<text text-anchor="middle" x="370" y="-169.3" font-family="Times,serif" font-size="14.00">1: code2</text>
<polyline fill="none" stroke="blue" points="307.5,-161.5 432.5,-161.5 "/>
<text text-anchor="middle" x="370" y="-146.3" font-family="Times,serif" font-size="14.00">2: code3</text>
<polyline fill="none" stroke="blue" points="307.5,-138.5 432.5,-138.5 "/>
<text text-anchor="middle" x="370" y="-123.3" font-family="Times,serif" font-size="14.00">3: fc_name</text>
<polyline fill="none" stroke="blue" points="307.5,-115.5 432.5,-115.5 "/>
<text text-anchor="middle" x="370" y="-100.3" font-family="Times,serif" font-size="14.00">4: has_subcountries</text>
<polyline fill="none" stroke="blue" points="307.5,-92.5 432.5,-92.5 "/>
<text text-anchor="middle" x="370" y="-77.3" font-family="Times,serif" font-size="14.00">5: id</text>
<polyline fill="none" stroke="blue" points="307.5,-69.5 432.5,-69.5 "/>
<text text-anchor="middle" x="370" y="-54.3" font-family="Times,serif" font-size="14.00">6: name</text>
<polyline fill="none" stroke="blue" points="307.5,-46.5 432.5,-46.5 "/>
<text text-anchor="middle" x="370" y="-31.3" font-family="Times,serif" font-size="14.00">7: number</text>
<polyline fill="none" stroke="blue" points="307.5,-23.5 432.5,-23.5 "/>
<text text-anchor="middle" x="370" y="-8.3" font-family="Times,serif" font-size="14.00">8: timestamp</text>
</g>
<!-- subcountries -->
<g id="node2" class="node"><title>subcountries</title>
<path fill="none" stroke="blue" d="M12,-221.5C12,-221.5 164,-221.5 164,-221.5 170,-221.5 176,-227.5 176,-233.5 176,-233.5 176,-370.5 176,-370.5 176,-376.5 170,-382.5 164,-382.5 164,-382.5 12,-382.5 12,-382.5 6,-382.5 0,-376.5 0,-370.5 0,-370.5 0,-233.5 0,-233.5 0,-227.5 6,-221.5 12,-221.5"/>
<text text-anchor="middle" x="43.5" y="-298.3" font-family="Times,serif" font-size="14.00">subcountries</text>
<polyline fill="none" stroke="blue" points="87,-221.5 87,-382.5 "/>
<text text-anchor="middle" x="131.5" y="-367.3" font-family="Times,serif" font-size="14.00">1: code</text>
<polyline fill="none" stroke="blue" points="87,-359.5 176,-359.5 "/>
<text text-anchor="middle" x="131.5" y="-344.3" font-family="Times,serif" font-size="14.00">2: country_id</text>
<polyline fill="none" stroke="blue" points="87,-336.5 176,-336.5 "/>
<text text-anchor="middle" x="131.5" y="-321.3" font-family="Times,serif" font-size="14.00">3: fc_name</text>
<polyline fill="none" stroke="blue" points="87,-313.5 176,-313.5 "/>
<text text-anchor="middle" x="131.5" y="-298.3" font-family="Times,serif" font-size="14.00">4: id</text>
<polyline fill="none" stroke="blue" points="87,-290.5 176,-290.5 "/>
<text text-anchor="middle" x="131.5" y="-275.3" font-family="Times,serif" font-size="14.00">5: name</text>
<polyline fill="none" stroke="blue" points="87,-267.5 176,-267.5 "/>
<text text-anchor="middle" x="131.5" y="-252.3" font-family="Times,serif" font-size="14.00">6: sequence</text>
<polyline fill="none" stroke="blue" points="87,-244.5 176,-244.5 "/>
<text text-anchor="middle" x="131.5" y="-229.3" font-family="Times,serif" font-size="14.00">7: timestamp</text>
</g>
<!-- subcountries&#45;&gt;countries -->
<g id="edge1" class="edge"><title>subcountries:port2&#45;&gt;countries:port0:w</title>
<path fill="none" stroke="grey" d="M177,-348C184.07,-348 183.409,-227.888 185,-221 198.092,-164.334 178.755,-100.477 227.986,-93.1882"/>
<polygon fill="grey" stroke="grey" points="228.264,-96.6775 238,-92.5 227.784,-89.6939 228.264,-96.6775"/>
</g>
<!-- subcountry_info -->
<g id="node3" class="node"><title>subcountry_info</title>
<path fill="none" stroke="blue" d="M206,-244.5C206,-244.5 378,-244.5 378,-244.5 384,-244.5 390,-250.5 390,-256.5 390,-256.5 390,-347.5 390,-347.5 390,-353.5 384,-359.5 378,-359.5 378,-359.5 206,-359.5 206,-359.5 200,-359.5 194,-353.5 194,-347.5 194,-347.5 194,-256.5 194,-256.5 194,-250.5 200,-244.5 206,-244.5"/>
<text text-anchor="middle" x="247.5" y="-298.3" font-family="Times,serif" font-size="14.00">subcountry_info</text>
<polyline fill="none" stroke="blue" points="301,-244.5 301,-359.5 "/>
<text text-anchor="middle" x="345.5" y="-344.3" font-family="Times,serif" font-size="14.00">1: country_id</text>
<polyline fill="none" stroke="blue" points="301,-336.5 390,-336.5 "/>
<text text-anchor="middle" x="345.5" y="-321.3" font-family="Times,serif" font-size="14.00">2: id</text>
<polyline fill="none" stroke="blue" points="301,-313.5 390,-313.5 "/>
<text text-anchor="middle" x="345.5" y="-298.3" font-family="Times,serif" font-size="14.00">3: name</text>
<polyline fill="none" stroke="blue" points="301,-290.5 390,-290.5 "/>
<text text-anchor="middle" x="345.5" y="-275.3" font-family="Times,serif" font-size="14.00">4: sequence</text>
<polyline fill="none" stroke="blue" points="301,-267.5 390,-267.5 "/>
<text text-anchor="middle" x="345.5" y="-252.3" font-family="Times,serif" font-size="14.00">5: timestamp</text>
</g>
<!-- subcountry_info&#45;&gt;countries -->
<g id="edge2" class="edge"><title>subcountry_info:port1&#45;&gt;countries:port0:w</title>
<path fill="none" stroke="grey" d="M391,-348C437.224,-348 416.251,-282.047 390,-244 349.081,-184.694 279.954,-244.281 239,-185 217.822,-154.345 200.442,-103.283 227.97,-93.9782"/>
<polygon fill="grey" stroke="grey" points="228.617,-97.4207 238,-92.5 227.597,-90.4955 228.617,-97.4207"/>
</g>
</g>
</svg>
